<?xml version="1.0" standalone="no"?>
<!DOCTYPE svg PUBLIC "-//W3C//DTD SVG 20010904//EN"
 "http://www.w3.org/TR/2001/REC-SVG-20010904/DTD/svg10.dtd">
<svg version="1.0" xmlns="http://www.w3.org/2000/svg"
 width="589.000000pt" height="589.000000pt" viewBox="0 0 589.000000 589.000000"
 preserveAspectRatio="xMidYMid meet">
<metadata>
Created by potrace 1.14, written by Peter Selinger 2001-2017
</metadata>
<g transform="translate(0.000000,589.000000) scale(0.100000,-0.100000)"
fill="#000000" stroke="none">
<path d="M2738 5885 c-1 -1 -37 -6 -78 -9 -75 -7 -84 -8 -170 -21 -108 -15
-395 -82 -440 -102 -8 -3 -17 -7 -20 -8 -92 -23 -383 -149 -495 -213 -92 -53
-138 -81 -214 -131 -46 -31 -91 -60 -99 -66 -8 -5 -22 -16 -31 -23 -9 -7 -59
-47 -111 -89 -96 -78 -330 -307 -385 -377 -16 -21 -35 -44 -40 -50 -133 -143
-385 -579 -460 -796 -8 -25 -18 -52 -22 -60 -3 -8 -7 -17 -8 -20 -1 -3 -11
-36 -24 -75 -12 -38 -24 -77 -26 -85 -2 -8 -11 -40 -20 -70 -8 -30 -26 -111
-39 -180 -43 -222 -50 -298 -50 -560 0 -260 12 -404 50 -575 4 -16 8 -39 9
-50 9 -65 80 -302 140 -460 28 -75 132 -290 188 -391 71 -126 213 -325 326
-458 34 -40 245 -251 296 -297 79 -69 364 -279 380 -279 3 0 28 -15 57 -33 97
-62 298 -159 423 -206 33 -13 76 -29 95 -37 20 -9 42 -16 50 -18 8 -1 49 -12
90 -25 41 -12 89 -26 105 -31 25 -8 122 -27 270 -55 17 -3 50 -8 75 -11 25 -2
63 -7 85 -10 62 -9 512 -9 590 0 39 4 81 9 95 11 14 2 54 8 90 15 36 7 74 13
85 15 11 2 31 6 45 9 14 3 41 9 60 13 44 9 38 7 90 22 25 7 74 21 110 32 64
20 75 24 95 29 37 11 264 109 347 150 166 83 438 257 524 335 6 5 36 30 65 55
66 55 257 244 323 320 246 282 451 647 576 1029 38 114 84 307 100 416 7 44
14 89 16 100 12 62 19 205 19 390 0 207 -3 257 -25 405 -17 115 -20 134 -23
150 -5 22 -30 134 -32 140 -1 3 -5 19 -9 35 -13 50 -57 199 -65 220 -5 11 -19
47 -31 80 -30 79 -103 249 -110 255 -3 3 -21 37 -40 75 -67 136 -170 295 -293
453 -44 56 -84 102 -88 102 -5 0 -9 5 -9 11 0 16 -255 267 -340 335 -41 32
-77 61 -80 65 -13 15 -215 151 -290 196 -77 47 -302 163 -314 163 -3 0 -29 11
-58 24 -91 42 -296 109 -428 142 -61 15 -163 35 -200 40 -25 3 -47 8 -50 9 -3
2 -33 6 -65 10 -33 4 -71 9 -85 12 -27 5 -496 13 -502 8z"/>
</g>
</svg>
